<svg xmlns="http://www.w3.org/2000/svg" xmlns:xlink="http://www.w3.org/1999/xlink" viewBox="0 0 100.14 91.54"><defs><style>.cls-1,.cls-2,.cls-6{fill:none;}.cls-1{clip-rule:evenodd;}.cls-3{clip-path:url(#clip-path);}.cls-4{clip-path:url(#clip-path-2);}.cls-5{fill:#8a959e;}.cls-6{stroke:#8a959e;stroke-miterlimit:10;stroke-width:2.8px;}.cls-7{clip-path:url(#clip-path-3);}</style><clipPath id="clip-path" transform="translate(-1732.02 -936)"><path class="cls-1" d="M1802.08,1000.58v-8.86h9.05a18.89,18.89,0,0,1,8-1.79,18.59,18.59,0,0,1,3,.26V956a4.22,4.22,0,0,0-4.21-4.21h-4.39v-3a2.79,2.79,0,0,0-2.78-2.78h-2.87a2.79,2.79,0,0,0-2.78,2.78v3h-46.08v-3a2.79,2.79,0,0,0-2.78-2.78h-2.87a2.79,2.79,0,0,0-2.78,2.78v3h-4.39A4.22,4.22,0,0,0,1742,956v57.37a4.22,4.22,0,0,0,4.21,4.22h55.94a18.94,18.94,0,0,1-.09-17Zm0-11.55h17.39V978.81h-17.39Zm0-12.91h17.39V965.9h-17.39Zm5.74-27.34a.09.09,0,0,1,.09-.09h2.87a.09.09,0,0,1,.08.09v8.61a.08.08,0,0,1-.08.08h-2.87a.08.08,0,0,1-.09-.08Zm-54.51,0a.09.09,0,0,1,.09-.09h2.87a.09.09,0,0,1,.09.09v8.61a.08.08,0,0,1-.09.08h-2.87a.08.08,0,0,1-.09-.08Zm-8.6,7.17a1.52,1.52,0,0,1,1.52-1.52h4.39v3a2.78,2.78,0,0,0,2.78,2.77h2.87a2.78,2.78,0,0,0,2.78-2.77v-3h46.08v3a2.78,2.78,0,0,0,2.78,2.77h2.87a2.78,2.78,0,0,0,2.78-2.77v-3H1818a1.52,1.52,0,0,1,1.52,1.52v7.26h-74.76Zm17.39,58.9h-15.87a1.53,1.53,0,0,1-1.52-1.53v-8.69h17.39Zm-17.39-12.91h17.39V991.72h-17.39Zm0-12.91h17.39V978.81h-17.39Zm0-12.91h17.39V965.9h-17.39Zm36,25.82h-11.56a1.35,1.35,0,0,0,0,2.69h11.56v10.22h-16V991.72h16Zm-16-12.91h16V978.81h-16Zm0-12.91h16V965.9h-16Zm18.65,38.73h16v-10.22h-16Zm0-12.91h16V991.72h-16Zm16-12.91h-16V978.81H1795a1.35,1.35,0,0,0,0-2.69h-11.56V965.9h16Z"/></clipPath><clipPath id="clip-path-2" transform="translate(-1732.02 -936)"><rect class="cls-2" width="2880" height="2316"/></clipPath><clipPath id="clip-path-3" transform="translate(-1732.02 -936)"><path class="cls-1" d="M1814.35,1009.31H1812l-.8,3.72h-2.69l.81-3.72H1802l.43-2.32,9.43-11.18h3l-2.36,11.18h2.36Zm-4.55-2.32.79-3.63c.24-1.06.64-2.54,1.18-4.42h-.1a16.51,16.51,0,0,1-1.58,2.18l-5,5.87Z"/></clipPath></defs><title>four_equal_paymnets</title><g id="Layer_2" data-name="Layer 2"><g id="Layer_1-2" data-name="Layer 1"><g class="cls-3"><g class="cls-4"><rect class="cls-5" width="100.14" height="91.54"/></g></g><path class="cls-6" d="M1813.3,984.19a19.34,19.34,0,0,0-3.16-.27,19.88,19.88,0,0,0-8.45,1.88,20.16,20.16,0,0,0-9.53,9.33,20,20,0,1,0,21.14-10.94Z" transform="translate(-1732.02 -936)"/><g class="cls-7"><g class="cls-4"><rect class="cls-5" x="59.99" y="49.81" width="32.85" height="37.21"/></g></g></g></g></svg>