<svg xmlns="http://www.w3.org/2000/svg" viewBox="0 0 109 109"><defs><style>.three-a{fill:#f4f4f4;}.three-b{fill:#fff;stroke:#717171;}.three-c,.g{fill:#717171;}.three-c{font-size:14px;font-family:ProximaNova-Bold, Proxima Nova;font-weight:700;}.three-d,.three-f{fill:none;}.three-e,.three-g{stroke:none;}</style></defs><g transform="translate(-8208 -438)"><circle class="three-a" cx="54.5" cy="54.5" r="54.5" transform="translate(8208 438)"/><g class="three-b" transform="translate(8235 483)"><rect class="three-e" width="63" height="28"/><rect class="three-f" x="0.5" y="0.5" width="62" height="27"/></g><g class="three-b" transform="translate(8231 479)"><rect class="three-e" width="63" height="28"/><rect class="three-f" x="0.5" y="0.5" width="62" height="27"/></g><g class="three-b" transform="translate(8227 474)"><rect class="three-e" width="63" height="28"/><rect class="three-f" x="0.5" y="0.5" width="62" height="27"/></g><text class="three-c" transform="translate(8254 492)"><tspan x="0" y="0">$</tspan></text><g class="three-d" transform="translate(8217 474)"><path class="three-e" d="M10,28V18A10,10,0,0,1,20,28Z"/><path class="three-g" d="M 18.94461059570312 26.99990081787109 C 18.48200225830078 22.83473587036133 15.16506290435791 19.51779747009277 10.99989891052246 19.05518913269043 L 10.99989891052246 26.99990081787109 L 18.94461059570312 26.99990081787109 M 19.99979972839355 27.99990081787109 L 9.999898910522461 27.99990081787109 L 9.999898910522461 18 C 15.5231990814209 18 19.99979972839355 22.47750091552734 19.99979972839355 27.99990081787109 Z"/></g><g class="three-d" transform="translate(8227 474)"><path class="three-e" d="M53,28A10,10,0,0,1,63,18V28Z"/><path class="three-g" d="M 62.00000381469727 26.99990081787109 L 62.00000381469727 19.05518913269043 C 57.8348388671875 19.51779747009277 54.51790237426758 22.83473587036133 54.05529403686523 26.99990081787109 L 62.00000381469727 26.99990081787109 M 63.00000381469727 27.99990081787109 L 53.00010299682617 27.99990081787109 C 53.00010299682617 22.47750091552734 57.47760391235352 18 63.00000381469727 18 L 63.00000381469727 27.99990081787109 Z"/></g><g class="three-d" transform="translate(8227 464)"><path class="three-e" d="M53,10H63V20A10,10,0,0,1,53,10Z"/><path class="three-g" d="M 62.00000381469727 18.94461059570312 L 62.00000381469727 10.99989891052246 L 54.05529403686523 10.99989891052246 C 54.51790237426758 15.16506290435791 57.8348388671875 18.48200225830078 62.00000381469727 18.94461059570312 M 63.00000381469727 19.99979972839355 C 57.47760391235352 19.99979972839355 53.00010299682617 15.5231990814209 53.00010299682617 9.999898910522461 L 63.00000381469727 9.999898910522461 L 63.00000381469727 19.99979972839355 Z"/></g><g class="three-d" transform="translate(8217 464)"><path class="three-e" d="M10,20V10H20A10,10,0,0,1,10,20Z"/><path class="three-g" d="M 10.99989891052246 18.94461059570312 C 15.16506290435791 18.48200225830078 18.48200225830078 15.16506290435791 18.94461059570312 10.99989891052246 L 10.99989891052246 10.99989891052246 L 10.99989891052246 18.94461059570312 M 9.999898910522461 19.99979972839355 L 9.999898910522461 9.999898910522461 L 19.99979972839355 9.999898910522461 C 19.99979972839355 15.5231990814209 15.5231990814209 19.99979972839355 9.999898910522461 19.99979972839355 Z"/></g></g></svg>
